<?xml version="1.0" encoding="UTF-8"?>
<svg width="488px" height="676px" viewBox="0 0 488 676" version="1.1" xmlns="http://www.w3.org/2000/svg" xmlns:xlink="http://www.w3.org/1999/xlink">
    <!-- Generator: Sketch 59.1 (86144) - https://sketch.com -->
    <title>Untitled</title>
    <desc>Created with Sketch.</desc>
    <g id="Page-1" stroke="none" stroke-width="1" fill="none" fill-rule="evenodd">
        <g id="tooth" fill="#000000" fill-rule="nonzero">
            <path d="M57.05,354.12 C56.73,324.52 53.15,299.34 36.49,274.01 C8,230.74 -1.3,182.76 0.33,131.82 C2.61,60.45 41.33,12.66 106.78,1.97 C133.86,-2.46 160.36,2.72 184.02,15.19 C223.58,36.03 261.02,35.85 300.97,15.59 C337.37,-2.85 376.54,-5.58 414.85,11.59 C464.55,33.83 483.79,76.33 487.17,127.39 C490.57,178.73 481.47,227.67 452.84,271.6 C437.29,295.46 430.69,320.78 431.3,349.84 C432.86,424.61 429.3,499.37 404.6,570.84 C396.67,593.79 382.91,615.21 369.04,635.43 C360.43,647.98 282.206657,674.872752 243,675.002034 C206.114346,675.119715 131.93,649.46 121.52,639.06 C93.32,610.91 80.52,574.59 73.83,537 C64.5589737,484.285894 59.114756,430.969992 57.54,377.47 C57.3,369.69 57.1366667,361.906667 57.05,354.12 Z M337.54,623.86 C361.74,607.27 370.77,584.74 378.02,561.68 C399.13,494.5 404.6,424.96 403.13,355.27 C402.35,318.27 410.54,286.03 429.13,254.62 C454.82,211.28 462.42,163.8 455.4,114 C448.92,68 418.56,35.3 373.19,32.41 C352.71,31.11 330,36.65 311.04,45.19 C265.65,65.63 221.93,68.08 177.24,44.91 C168.99,40.63 159.79,37.98 150.8,35.41 C94.67,19.35 44.3,48.26 33.04,105.5 C22.69,158.1 29.48,208.86 58.48,255.44 C73.19,279.06 84.24,303.58 85.09,332.67 C86.6,384.52 88.73,436.47 93.87,488.06 C98.87,538.43 112.44,584.95 147.18,622.75 C184,639 184.595282,646.5 243,646.5 C266,646.5 311,639 337.57,623.87" id="Shape"></path>
            <path d="M114.39,72 C138.55,73.24 123.09,96.67 116.34,107 C110.208324,116.423327 106.580718,127.254518 105.8,138.47 C104.07,162.47 111.55,187.36 122.35,208.47 C127.52,218.58 139.2,239.92 121.03,244.7 C109.79,247.7 99.21,233.7 94.5,225.36 C86.33,210.88 81.81,194.36 78.71,178.17 C74.0329448,153.003395 75.5742844,127.075248 83.2,102.64 C87.09,89.97 98.81,71.71 113.79,71.93" id="Path"></path>
        </g>
        <line x1="76" y1="327" x2="419" y2="327.5" id="Path-2" stroke="#000000" stroke-width="30"></line>
        <path d="" id="Path-5" stroke="#979797"></path>
        <path d="M76,372 C184.666667,416 299,416 419,372" id="Path-6" stroke="#000000" stroke-width="20" stroke-linecap="round"></path>
        <path d="M76,422 C184.666667,466 299,466 419,422" id="Path-6" stroke="#000000" stroke-width="20" stroke-linecap="round"></path>
        <path d="M76,472 C182.44898,516 294.44898,516 412,472" id="Path-6" stroke="#000000" stroke-width="20" stroke-linecap="round"></path>
        <path d="M87,522 C188.696793,566 295.696793,566 408,522" id="Path-6" stroke="#000000" stroke-width="20" stroke-linecap="round"></path>
        <path d="M96,572 C189.776482,616 288.443149,616 392,572" id="Path-6" stroke="#000000" stroke-width="20" stroke-linecap="round"></path>
    </g>
</svg>