<?xml version="1.0" encoding="UTF-8"?>
<svg width="623px" height="654px" viewBox="0 0 623 654" version="1.1" xmlns="http://www.w3.org/2000/svg" xmlns:xlink="http://www.w3.org/1999/xlink">
    <!-- Generator: Sketch 59.1 (86144) - https://sketch.com -->
    <title>Untitled 2</title>
    <desc>Created with Sketch.</desc>
    <g id="Page-1" stroke="none" stroke-width="1" fill="none" fill-rule="evenodd">
        <g id="tooth" transform="translate(67.000000, 0.000000)" fill="#000000" fill-rule="nonzero">
            <path d="M57.54,377.47 C57.3,369.69 57.1366667,361.906667 57.05,354.12 C56.73,324.52 53.15,299.34 36.49,274.01 C8,230.74 -1.3,182.76 0.33,131.82 C2.61,60.45 41.33,12.66 106.78,1.97 C133.86,-2.46 160.36,2.72 184.02,15.19 C223.58,36.03 261.02,35.85 300.97,15.59 C337.37,-2.85 376.54,-5.58 414.85,11.59 C464.55,33.83 483.79,76.33 487.17,127.39 C490.57,178.73 481.47,227.67 452.84,271.6 C437.29,295.46 430.69,320.78 431.3,349.84 C432.86,424.61 429.3,499.37 404.6,570.84 C396.67,593.79 382.91,615.21 369.04,635.43 C360.43,647.98 346.48,657.99 329.04,651.72 C310.69,645.14 307.91,628.72 305.04,611.72 C295.72,557.36 285.8,503.12 275.28,449 C272.88,436.73 267.72,424.6 261.7,413.57 C257.7,406.27 250.25,399.34 243.57,394.79 C217.57,418 209.38,453.79 202.82,486.62 C194.29,529.33 189.18,572.72 182.54,615.81 C180.2,631 176,645.11 159.83,651.61 C143.66,658.11 131.93,649.46 121.52,639.06 C93.32,610.91 80.52,574.59 73.83,537 C64.5589737,484.285894 59.114756,430.969992 57.54,377.47 L57.54,377.47 Z M337.54,623.86 C361.74,607.27 370.77,584.74 378.02,561.68 C399.13,494.5 404.6,424.96 403.13,355.27 C402.35,318.27 410.54,286.03 429.13,254.62 C454.82,211.28 462.42,163.8 455.4,114 C448.92,68 418.56,35.3 373.19,32.41 C352.71,31.11 330,36.65 311.04,45.19 C265.65,65.63 221.93,68.08 177.24,44.91 C168.99,40.63 159.79,37.98 150.8,35.41 C94.67,19.35 44.3,48.26 33.04,105.5 C22.69,158.1 29.48,208.86 58.48,255.44 C73.19,279.06 84.24,303.58 85.09,332.67 C86.6,384.52 88.73,436.47 93.87,488.06 C98.87,538.43 112.44,584.95 147.18,622.75 C159.4,597.99 160.18,566.47 164.98,539.21 C170.43,508.02 176.18,476.87 183.53,446.07 C189.12,422.68 202.08,399.97 216.03,379.97 C230.57,359.13 254.83,359.64 271.2,379.31 C281.6,391.81 291.26,406.49 296.02,421.82 C307.44,458.61 317.02,496.1 324.94,533.82 C330.9,562.18 333.16,591.35 337.57,623.87 L337.54,623.86 Z" id="Shape"></path>
            <path d="M114.39,72 C138.55,73.24 123.09,96.67 116.34,107 C110.208324,116.423327 106.580718,127.254518 105.8,138.47 C104.07,162.47 111.55,187.36 122.35,208.47 C127.52,218.58 139.2,239.92 121.03,244.7 C109.79,247.7 99.21,233.7 94.5,225.36 C86.33,210.88 81.81,194.36 78.71,178.17 C74.0329448,153.003395 75.5742844,127.075248 83.2,102.64 C87.09,89.97 98.81,71.71 113.79,71.93 L114.39,72 Z" id="Path"></path>
        </g>
        <path d="M269,643 C281,506.666667 294.833333,438.5 310.5,438.5 C326.166667,438.5 340.333333,506.666667 353,643 L269,643 Z" id="Path-2" stroke="#000000" stroke-width="20"></path>
        <path d="M56.6363636,215 C63.5454545,246.666667 72.3257576,271.166667 82.9772727,288.5 C86.8953019,294.875854 101.977273,327.5 101.977273,327.5 C108.853483,327.5 98.5374424,409.301096 107.590909,471.5 C109.875024,487.192272 111.48204,524.131637 117.954545,554 C121.797174,571.732392 130.145658,599.232392 143,636.5 L10,636.5 L10,215 L29.8636364,215 L56.6363636,215 Z" id="Path-3" stroke="#000000" stroke-width="20"></path>
        <path d="M526.636364,222 C533.545455,253.666667 542.325758,278.166667 552.977273,295.5 C556.895302,301.875854 571.977273,334.5 571.977273,334.5 C578.853483,334.5 568.537442,416.301096 577.590909,478.5 C579.875024,494.192272 581.48204,531.131637 587.954545,561 C591.797174,578.732392 600.145658,606.232392 613,643.5 L480,643.5 L480,222 L499.863636,222 L526.636364,222 Z" id="Path-3" stroke="#000000" stroke-width="20" transform="translate(546.500000, 432.750000) scale(-1, 1) translate(-546.500000, -432.750000) "></path>
        <ellipse id="Oval" fill="#000000" cx="41.5" cy="372" rx="8.5" ry="9"></ellipse>
        <ellipse id="Oval" fill="#000000" cx="67.5" cy="336" rx="8.5" ry="9"></ellipse>
        <ellipse id="Oval" fill="#000000" cx="66.5" cy="404" rx="8.5" ry="9"></ellipse>
        <ellipse id="Oval" fill="#000000" cx="42.5" cy="463" rx="8.5" ry="9"></ellipse>
        <ellipse id="Oval" fill="#000000" cx="76.5" cy="481" rx="8.5" ry="9"></ellipse>
        <ellipse id="Oval" fill="#000000" cx="58.5" cy="556" rx="8.5" ry="9"></ellipse>
        <ellipse id="Oval" fill="#000000" cx="41.5" cy="513" rx="8.5" ry="9"></ellipse>
        <ellipse id="Oval" fill="#000000" cx="90.5" cy="574" rx="8.5" ry="9"></ellipse>
        <ellipse id="Oval-Copy" fill="#000000" cx="50.5" cy="596" rx="8.5" ry="9"></ellipse>
        <ellipse id="Oval-Copy-2" fill="#000000" cx="311.5" cy="550" rx="8.5" ry="9"></ellipse>
        <ellipse id="Oval-Copy-3" fill="#000000" cx="303.5" cy="605" rx="8.5" ry="9"></ellipse>
        <ellipse id="Oval-Copy-4" fill="#000000" cx="531.5" cy="605" rx="8.5" ry="9"></ellipse>
        <ellipse id="Oval-Copy-5" fill="#000000" cx="546.5" cy="523" rx="8.5" ry="9"></ellipse>
        <ellipse id="Oval-Copy-9" fill="#000000" cx="588.5" cy="614" rx="8.5" ry="9"></ellipse>
        <ellipse id="Oval-Copy-10" fill="#000000" cx="571.5" cy="578" rx="8.5" ry="9"></ellipse>
        <ellipse id="Oval-Copy-11" fill="#000000" cx="556.5" cy="372" rx="8.5" ry="9"></ellipse>
        <ellipse id="Oval-Copy-6" fill="#000000" cx="580.5" cy="404" rx="8.5" ry="9"></ellipse>
        <ellipse id="Oval-Copy-7" fill="#000000" cx="580.5" cy="485" rx="8.5" ry="9"></ellipse>
        <ellipse id="Oval-Copy-8" fill="#000000" cx="554.5" cy="447" rx="8.5" ry="9"></ellipse>
    </g>
</svg>
